<?xml version="1.0" encoding="UTF-8"?><svg id="Layer_2" xmlns="http://www.w3.org/2000/svg" viewBox="0 0 150.04 312.56"><defs><style>.cls-1{fill:#fff;}</style></defs><g id="Layer_2-2"><g id="Layer_1-2"><path class="cls-1" d="M125.61,31.46c.56.37,1.29.35,1.83.7,4.05,2.6,8.03,7.57,11.6,10.83.25.23.78.22.86.34.12.19-.02.75.16,1.16.16.36.84.71,1.09,1.08.46.67.97,2.24,1.32,2.76.26.4,1.17.42,1.29.88.08.3-.22.71-.17,1.11.13,1.1,1.55,2.41.96,3.63l1.6,1.27c-.5,1.24.09,1.4.39,2.24.66,1.88.89,3.03,1.13,4.86.11.83,1.24,1.83,1.38,2.71.66,4.07-.83,9.03.99,13.17v46.58c-1.3,2.7-.64,5.63-1.04,8.33s-2.35,6.37-2.57,8.97c-.08.93.32,2.61.22,3.54-.11,1.05-1.68,7.09-2.26,7.61-1.49.5-2.89,1.51-4.45,1.29l-1.11,1.56-1.29-.36c-.5,1.12-1.47,1.12-2.06,1.56-1.59,1.21-2.9,3.22-3.55,5.09-.39,1.12-.56,3-.94,4.1-.33.96-1.19.74-1.38-.19-.2-1,.28-1.92.24-2.86-.06-1.38-1.02-2.93-1.19-4.11-.09-.63-.1-4.49-.26-4.66-.55-.02-.69.5-1.31.5-.52,0-1.09-.52-1.33-.4-.6.3-1.86,3.11-1.93,3.84-.41,4.32.44,9.37,0,13.69-.13,1.26-.83,2.42-.96,3.6-.39,3.55.49,5.76-.66,9.42-1.6,5.08-.18,10.16-.77,15.31-.17,1.47-1.28,6.09-1.81,7.31-.17.38-.92.67-1.04,1.14-.1.37.17.76.08,1.04-.16.44-1.15.69-1.28,1.11-.18.55.31,1.21.11,1.52-.22.36-.99.27-1.18.77-.18.46-.09,1-.22,1.44-.2.65-.91,2.77-1.2,3.24-.18.28-1.81,1.23-1.97,1.51-.2.36-.05.83-.25,1.19-.16.29-1.01.52-1.21.97-.22.52.21.92.11,1.28-.08.32-.76.49-1.05.89-.46.65-1.78,2.93-2.1,3.66s-.28,1.78-.81,2.55c-.6.88-2.29,1.89-3.09,2.68-.7.69-1.56,1.53-2.29,2.28-.24.25-.19.7-.29.78-.18.16-1.2-.06-1.58.34-.66.68.48,1.53-1.97,1.01l-.88,1.35-1.76-.15-.5,1.32-1.66-.11-1.1,1.54c-.82-.3-1.73-.16-2.56.09-.99.3-2.81,1.36-3.71,1.57-1.27.29-2.4-.37-3.55.77-7.5-.24-15.22.52-22.59-.41-.73-.09-1.31-.22-1.9-.3-.91-.12-1.87.15-2.77-.11-.56-.16-.54-.76-.85-.84-.38-.1-.9.34-1.37.2-.4-.12-.66-1.11-1.13-1.31s-.81.15-1.25.08c-.61-.1-4.14-1.94-4.82-2.33-.3-.17-.6-1.1-1.13-1.33-.39-.17-.88-.03-1.14-.18-.11-.06-1.21-1.64-1.52-1.96-1.43-1.46-1.15-.58-2.02-2.54-.16-.36-.83-.71-1.09-1.08-.47-.69-1.06-2.3-1.45-2.87-.5-.74-1.54-.06-1.04-2.07-.15-.71-1-.55-1.25-.94s.26-.9.03-1.44c-.2-.45-1.05-.68-1.21-.97-.31-.55-.81-2.12-1.3-2.77-.19-.26-.71-.34-.86-.58-.31-.51.01-1.32-.16-1.88l-1.3-.76.11-1.53c-.16-.47-.99-.3-1.15-.78s.13-1.43-.07-1.74c-.08-.12-.59-.14-.78-.29-.65-.49-.7-3.26-.91-4.14-.6-2.52-2-5.33-2.36-8.2v-36.47c.25-1.35-1.79-3.16-1.87-3.41-.1-.3-.42-2.12-.5-2.62-.2-1.24.54-3.84-1.71-3.11-.35.11-2.31,1.19-2.63,1.45-.94.74-.8,1.34-1.32,2.05-.23.32-.71.41-.85.64-.06.11-.66,2.17-.69,2.37-.86,5.56.69,13.2-.03,18.93-.11.9-.78,2.4-.93,3.39-.12.81.14,1.83-.07,2.57-.16.56-1.2,1.35-1.47,2.37-1.17,4.52-1.21,10.85-.11,15.39.15.62.78.95.85,1.28.38,1.95,1.14,3.97,1.69,6.02.13.49-.02,1.06.11,1.57.49,1.84,2.19,2.85,2.81,5.35.34,1.38-.39,1.47,1.43,2.42l-.11,1.28,1.32.74c-.46,1.35.07,1.68.73,2.74-.81,1.03-2,.37-2.87-.25-.34-.24-3.6-3.25-3.73-3.47-.23-.4-.03-.96-.34-1.34-.25-.32-.94-.31-1.12-.56-.36-.51.15-1.15.08-1.54-.05-.26-.61-.64-.79-1.1-.51-1.31-.58-3.53-.88-4.88-.53-2.36-1.57-2.63-1.64-5.58-.13-4.94-1.32-10.55-.72-15.84.11-.98.89-2.63.93-3.58.14-3.89-.79-8.36-.19-12.23.17-1.11,1.52-3.12,1.67-4.33.56-4.62-.42-10.37-.02-15.12-.65-2.11-3.49-4.89-5.82-4.16-.33.1-.52.56-.82.64-.42.12-.82-.21-1.12-.16-.48.08-.67,1.15-1.65.87-.3-.09-.52-.5-.81-.66-.31-.17-.84-.2-.99-.32-.1-.09-.99-2.15-1.02-2.46-.26-2.12-.27-8.95.03-11.03.18-1.25,1.6-3.46,1.64-4.6.02-.49-.24-1.04-.24-1.65.1-22.01-.04-44.01,0-66.02.34-1.79,1.08-3.36,1.62-5.1.48-1.53.56-2.72.58-4.27,0-.68.56-1.23.64-1.73.18-1.22-.74-1.04,1.13-1.98.35-.52-.33-1.21-.03-1.68.2-.31.93-.35,1.21-.73s.2-1.02.44-1.36,1.35-.86,1.71-1.53c.22-.4.17-1.09.43-1.37.2-.21.83-.19,1.03-.53s.04-.84.24-1.2c.11-.2.7-.44.96-.72,1.61-1.66,2.72-2.62,4.46-3.94,1.63-1.24,4.58-4.02,5.98-5.54.28-.3.44-1.01.51-1.05.92-.59,2.83,1.35,1.71,2.07-2.41,1.54-4.14,4.05-6.29,5.95-.35.31-2.52,1.69-2.61,1.83-.12.2.02.75-.16,1.15s-1.01.8-1.19,1.21-.03.88-.18,1.14c-.11.19-1.64,1.03-1.88,1.36-.26.36-.2.85-.46,1.22s-.93.72-1.09,1.08c-.18.4-.04.95-.16,1.15-.07.11-1.9.93-2.11,1.42.11.79-.41,1.36-.49,2.09-.77,6.95.35,15.6.02,22.82-.05,1.14-.76,1.6-.11,2.73.23.4.77.57.82,1.1.16,1.55-.93,1.64-1.31,2.29-.06.09-.82,1.93-.84,2.04-.35,1.86-.27,11.37-.02,13.44.2,1.58,1.35,3.96,1.86,5.58.13.4-.04.88.18,1.26.2.33,2.08,2.34,2.51,2.77s1.79,1.2,2.03,1.57c.38.6.93,2.54,1.47,3.33.59.85,1.44,1.66,2.16,2.64,1.95,2.66,5.37,6.64,7.8,9.01,1.34,1.31.62.69,1.46,2.37.68,1.36,2.08,2.54,2.81,3.67.24.37,2.07,3.7,2.1,3.92.09.58-.36.95-.4,1.56-.13,2.04.51,6.09,1.02,8.11.23.9,1.16,2.37,1.33,3.23.94,4.58.59,9.46,2.46,13.86-.05,11.76.04,23.53,0,35.3,0,2.47.57,3.05.94,5.28.12.7-.17,1.65.13,2.27.18.37,1.22.76,1.57,1.31.75,1.16,1.67,2.53,2.35,3.65.35.58.38,1.46.9,2.22,1.32,1.9,3.68,2.91,5.46,4.08.31.21.34.81.82.95s.93-.25,1.38-.21c.58.05,1.73.93,2.73.44.25-.16.11-3.46,0-3.88-.31-1.04-2.08-1.74-2.35-4.37-.32-3.14,1.02-5.41.73-8.17-.1-.95-.62-1.42-.74-2.38-.3-2.56-.07-5.35.66-7.74,1.03-3.38,1.46-7.47,2.57-11.11.17-.55.85-1.1,1.04-1.84.12-.46-.07-1.17.16-1.52.1-.16,1.13-.45,1.58-.82.69-.56,3.36-5.31,4.44-3.74.87,1.26-2.26,2.57-2.3,4.21-.07,2.93,4.29.24,5.4-.6.93-.71,1.98-2,2.88-2.64.85-.61,2.94-1.36,3.61-1.91.26-.22.36-.72.59-.85.4-.24,1.14-.06,1.69-.23.45-.14.87-.73,1.36-.82,2.2-.4,6.79.33,9.02.97.43.12.75.84,1.36,1.04.94.31,2.24.32,3.22.86.9.49,2.2,2.22,3.02,2.5,1.24.43,4.18.03,5,.88.24.25.23.96.44,1.36,2.26,4.34,4.77,5.87,4.85,11.42.05,3.12-.84,8.39-.14,11.23.13.54.71.83.68,1.47-.03.56-.61.92-.71,1.47-.17.91-.11,5.49.26,6.2.53,1.02,1.44.74,1.43,2.43-.01,1.49-1.16,4.5-1.93,5.77-.43.71-1.46.95-1.46,2.15,0,.8,1.01,2.13,1.8,2.05.3-.03,3.17-2.75,3.75-3.24.4-.33.99-.42,1.4-.76,3.7-3.03,7.85-9.27,8.65-13.91.5-2.93,1.17-5.57,1.82-8.5.73-3.3.15-5.89.61-8.75.34-2.13.91-2.33.93-5.04.08-9.04-.05-18.08.03-27.12,1.27-3.27,2.22-6.69,3.21-9.99.45-1.51.69-3.25,1.15-4.61.17-.53.85-.75,1.02-1.14.2-.46.05-1,.23-1.45.64-1.57,2.31-2.58,1.3-4.52-1.92-.42-2.48.91-3.59,1.99-2.05,1.99-3.05,3.7-4.75,6.05-2.39,3.32-7.45,8.61-10.74,10.86-.64.43-2,.76-2.62,1.22-.47.35-.63,1.05-1.08,1.32-.64.37-2.16.71-2.63.97-.4.23-.48,1.19-.79,1.49-.09.09-1.99,1.33-2.1,1.38-.7.28-1.36,0-1.98.18-.44.13-.67.79-1.03.86-.53.1-1.97-.47-2.82.04-.64-1.48-1.96-2.02-3.51-2.14.02,1.56,1.22,2.23-.65,3.34-1.01-.39-1.73-.58-2.85-.47-1,.1-1.28.67-2.14.75-2.15.19-5.44-.44-7.66-.25-.78.07-1.1.82-1.51.93-.5.12-.94-.27-1.34-.17-.58.14-.54,1.11-1.94.92-.22-.03-1.72-.68-1.78-.76-.16-.26.02-1.03-.26-1.48-.18-.29-.73-.27-.98-.52-.33-.34-.32-1.16-.89-1.29-.39-.09-.83.29-1.33.17-.82-.2-2.54-1-3.44-1.15-1.23-.2-2.77.18-4.01-.07-.34-.07-2.9-1.5-3.29-1.75s-.39-.95-.52-1.04c-.26-.16-1.07.05-1.51-.05-1.49-.32-4.63-1.15-5.54-2.38-.37-.5-.41-1-.72-1.44-2.03-2.92-4.69-5.03-6.8-8.08-.98-1.42-1.28-1.5-2.2-2.6-1.01-1.2-.89-2.63-1.17-4.07-.19-.25-.84-.1-1.22-.26-.1-.05-1.56-1.53-1.61-1.63-.83-1.42-1.66-4.64-2.51-5.78-.62-.84-1.71-1.34-2.33-2.47-.44-.79-.67-2.17-1.13-2.95-.36-.6-1.08-.91-1.36-1.76-.4-1.22.03-2.35-.19-3.41-.11-.53-.59-.69-.66-.99-.05-.26.21-.62.09-1.06-.2-.68-1.04-.8-1.23-1.19-.54-1.1-.95-4-1.38-5.34-.32-1.01-1.43-2.87-1.61-3.91-.39-2.33-.37-14.66,0-17.01.15-.94,1.26-3.13,1.38-3.9.08-.49-.3-1.14-.19-1.85.09-.6.59-.92.64-1.25.85-5.06,2.15-10.18,3.79-15.21.16-.49.71-.88.81-1.37.1-.53-.43-1.4.22-1.75.23-.12.89-.12.99-.27.12-.17-.01-1.24.09-1.71.22-1.07.88-1.65,1.09-2.27.33-1.01-.41-1.64,1.46-1.54l.64-1.89c.37-.07,1.63.88,1.54,1.3-.17.46-1.06.64-1.17,1.02s.38.85.11,1.28c-.18.29-1,.48-1.21.97-.19.44-.08.96-.24,1.44-.27.8-.81,1.66-1.03,2.33-.3.92.41,1.74-1.21,2.03l-.56,4.12c-.75,2.02-2.01,5.23-2.34,7.5-.18,1.22-.14,12.43.11,13.06.5,1.21.22.57.39,1.74.12.78.98,1.58,1.11,2.03.74,2.51.62,4.72,1.2,7.2.11.49-.04,1.02.18,1.5.28.62,1.69.78,1.33,2.15.81-.08,1.96.18,2.7-.04.1-.03,1.57-1.17,1.63-1.25.3-.41.35-2.62.18-3.1-.13-.39-.76-.48-1.03-.89-.76-1.16-1.66-4.71-1.5-6.08.07-.6.79-.83.91-1.69.58-4.35-1.06-13.65.6-17.16.33-.7,2.17-2.64,2.22-2.82.23-.68.23-2.22.57-3.04.15-.37.64-.33.69-.57.06-.29-.19-.7-.13-1.06.03-.18,1.34-3.17,1.44-3.33.23-.35.7-.41.78-.54.15-.25.02-.78.17-1.15,1.16-2.79,1.9-3.57,3.97-5.63,1.4-1.39,1-.75,2.29-1.55.37-.23.55-.94.83-1.09.36-.2.83-.05,1.19-.25.52-.29,1.12-1.96,1.22-2.03s.76.49,1.68-.35c1.23-1.13.76-.58,1.9-1.21.5-.28,1.15-1.92,1.24-2,.14-.12.76,0,1.16-.16.87-.38.87-1.89,2.41-.94l1.19-1.47,1.06.36c.31-.07.63-1.09,1.11-1.31.63-.28,1.18.12,1.45,0,.41-.18.83-1.6,1.5-1.53.26.03.56.4.76.39.26,0,.56-.78,1.2-.9.79-.15,1.69-.31,2.45-.44,2.54-.41,4.28-.28,6.9-.28,4.37,0,9.02-.57,13.14.29.78.16,3.44,1.1,3.92,1.14.33.03.71-.25.93-.21.38.07.37,1.44,1.49,1.58.88.11,1.63.13,2.56.6.66.33.38,1.8,1.91,1.35,1.21-.35,1.15-2.38.05-2.37-.52,0-.85.98-1.56.73.19-1.03-.25-2.05-.87-2.85-.28-.36-.87-.43-1.01-.91-.19-.62.13-1.38-.16-2-.19-.39-1.05-.65-1.44-.96-.84-.66-.77-1.32-2.13-1.19-2,.19-3.06,2.4-3.63,2.4s-.81-.83-1.25-.93-1.21.39-1.5.19c-.06-.04-.21-.96-.49-1.31-.55-.71-2.97-1.4-1.95-2.66.59-.73,1.86-.17,2.58-.19,2.11-.06,4.33-.34,6.45-.16.95.08,1.68.53,2.38.61,1.33.17,1.03-.79,1.81,1.21l1.91-.12.49,1.32,1.91-.12.49,1.33,1.89-.11.5,1.32c1.25-.29,1.93.04,3.05.53,5.1,2.23,10.02,8.1,14,12.16.41.42,1.69,1.33,1.93,1.67.35.49.11,1.05.26,1.3.08.14.74.14,1.03.53s.25,1.23.43,1.39c.12.11.55-.02.62.06.11.11-.01.78.16,1.17.16.37,1.01.89,1.32,1.32.48.67,1.06,2.45,1.26,2.7.53.65,1.86.16,1.12,2.31l1.24.55-.05,1.84,1.34.87c.1.24-.15.61-.1.84.45,1.85.75,3.61,1.29,5.43.77,2.59.05,3.86.36,6.36.13,1.03,1.05,2.72,1.19,3.85.32,2.56-.44,6.27.02,8.62.03.13,1.01,1.81,1.25,2.35.16.36.68.62.68,1.01,0,.41-.91.96-.93,1.91,0,.25.18,1.66.25,1.88.3.93,1.28.65-.06,2.21l.74,1.2c0,.54-.82.8-.94,1.25-.13.49.26,1.21.22,1.86-.05.74-.53,1.09-.63,1.56-.08.39.17.74.09,1.04-.12.51-1.26,1.06-1.36,1.54-.08.36.23.72.16,1.1-.06.31-.83,1.28-1.03,1.86-.34.98-.53,2.45-.9,3.42-.29.74-1.4,2.24-1.57,2.99-.29,1.33-.04,1.28-.63,2.73-.66,1.65-2.08,4.19-2.49,5.68-.19.71.71,3.06,1.26,2.94.12-.03,1.51-1.7,1.67-1.93.62-.92.83-1.92,1.33-2.75,1.11-1.87,4.01-5.3,5.59-6.77.3-.28.97-.19,1.37-.43.25-.16,1.76-1.73,2.19-2.13,2.37-2.27,4.42-4.53,6.35-7.09.26-.35.83-.5.96-.72.25-.42.04-1.04.17-1.51.22-.74.87-1.3,1.04-1.84.49-1.63.75-4.36.84-6.12.44-8.86.29-19.43,0-28.34-.13-4.06-.77-7.97-3.11-11.29-.28-.4-1.11-.5-1.18-.62-.36-.58.62-2.24-1.21-2.39v-1.97c-1.52-.32-.94-1.11-1.36-1.84-.18-.31-1.52-.99-1.79-1.33-.3-.38-.23-.82-.48-1.2-.28-.43-1.42-1.12-1.45-1.24-.52-2.06,1.92-1.67,2.61-3.11-.47-.79-.83-2.01-1.29-2.71-1.27-1.92-5.81-4.58-7.67-6.25-.58-.53-2.34-2.99-2.76-3.24-.38-.22-.87-.05-1.27-.17-.51-.16-.75-.85-1.14-1.03s-.88-.03-1.14-.18c-.08-.04-.69-1.07-1.13-1.39-1.56-1.13-2.26-1.38-3.95-2.05-1.57-.62-2.64-3.59-.48-2.88,1.6.52,2.56,1.68,3.6,2.17.52.24,1.04.1,1.66.5.66.42,1.65,2.12,2.48,2.67l.09-.02ZM86.34,48.18c-.74-.5-1.41-.18-2.15-.37-.47-.13-.66-.57-1.49-.67-2.31-.28-13.31-.38-15.36,0-.65.13-1.92,1.47-2.45,1.63-.21.06-2.22.5-2.34.5-.28,0-.64-.27-.94-.19-.62.16-.49,2.15-2.4,1.2-.8,1.12-.8,1.69-2.41,1.19l-1.04,1.39c-2.59-.61-1.33.23-2.1,1-.42.41-1.11.08-1.57.35-.07.04-.94,1.12-.97,1.19-.66,1.22-1.23,2.01-1.88,3.17-.21.37-.23,1.01-.27,1.05-.21.19-1.3-.85-2.13.63-.23.42-.21.9-.41,1.27-.24.43-.96.79-1.01,1.37-.07.8,1.26,1.56.81,2.97-.12.39-2.11,2.65-2.52,3.01-.33.28-.9.33-.94.38-.13.15.05.93-.16,1.41s-1.03.67-1.2.96c-.25.42-.04,1.03-.18,1.5-.35,1.18-.66,2.43-1.01,3.55-.14.46-.7.74-.81,1.11-.22.76-.24,13.07-.05,14.1.13.66.77.79.91,1.25.47,1.63.79,3.74,1.36,5.36.21.6.88,1.24.98,1.66.1.39-.18.77-.04,1.22.2.69,1.03.8,1.24,1.19.28.53-.14.95-.08,1.3.08.44.99.62,1.22,1.17.14.34-.14.73.05,1.12.16.35.9.81,1.2,1.22,2.07,2.88,4.44,4.89,6.98,7.42.38.38.59.98,1.06,1.34.6.46,1.44.45,1.81.83.76.78.09,1.54,2.12.98,1.09,1.85.81,1.06,2.15,1.22.99.12,2.25,1.8,3.79,1.03.86,2.07,1,1.17,2.25,1.32.46.06.92.76,1.75.91.93.17,1.98-.1,2.82.06.62.12.86.81,1.7.94,1.33.21,5.11.26,6.42-.04.57-.13.97-.73,1.54-.86.75-.17,1.63.1,2.3-.1.43-.13.73-.8,1.19-.98.4-.15.78.13,1.18.01,1.25-.37,2.31-1.53,3.65-.96l1.22-1.61c1.48,1.16,1.42-.13,2.16-.74.85-.71,2.13-.95,2.77-1.31.35-.2.37-.99.72-1.2s.84-.07,1.33-.35c.58-.33,1.1-1.39,1.55-1.81,2.29-2.18,3.96-3.74,5.75-6.25.27-.38,1.08-.83,1.17-1.24.08-.33-.25-.71-.1-1.03.18-.37,1.03-.58,1.23-.96.23-.45-.2-.87-.11-1.28.1-.46.99-.64,1.24-1.19.21-.47-.13-.85.04-1.36.2-.58,1.11-1.14,1.27-1.87.37-1.61-.19-4.04.04-5.72.11-.79.62-.87.73-1.43.1-.53.12-3.47-.36-3.47-1.09,1.63-1.28-.47-2.52.11-.16.07-2.53,2.04-2.62,2.19-.53.9-1.61,4.26-1.7,5.28-.04.46-.07.76.35,1.05.92-.75,1.88-.7,2.05.6s-.18.89-.73,1.43c-1.57,1.54-4.08,4.41-5.86,5.43-.48.28-.97.15-1.33.35-.38.21-1.81,2.36-2.29,2.75s-1.07.26-1.55.61c-1.31.96-4.1,3.3-5.87,3.45-.32.03-.66-.33-1.09-.11s-.62,1.19-1.13,1.31c-.4.09-.82-.34-1.27-.1-.41.21-.62,1.19-1.13,1.3-.33.07-.71-.23-1.1-.16-1.32.24-.91.41-2.69.42-3.7.02-8.15.31-11.76,0-.68-.06-1.28-.72-2.29-.33-1.17-1.87-.51-1.09-2.05-1.08-1.04,0-.76-.83-1.19-1.22-.3-.27-.86-.24-1.34-.58-2.86-2.04-7.48-7.86-9.35-10.63-.78-1.16-1.05-1.77-1.5-3-.24-.64-1.02-1.94-1.09-2.52-.05-.4.25-.81.17-1.11-.12-.47-1.1-.52-1.3-.87-.24-.41-.02-1.04-.17-1.51-.85-2.64-1.03-8.67-.67-11.58.15-1.19,1.16-3.43,1.51-4.97.4-1.75,1.49-3.23,2.57-4.63-.28-1.26-2.18.15-2.18-1.43,0-1.3,1.08-1.33,1.3-1.86.66-1.57-.48-2.74,1.25-4.74.41-.48,2.94-3.05,3.34-3.38.62-.5,1.75-.54,2.41-.95.74-.45,1.1-1.68,1.31-1.81.77-.51,3.75-1.13,4.5-1.62.35-.23,1.87-1.66,2.39-1.81.65-.19,4.01-.69,4.77-.76,1.17-.09,2.78.19,3.82-.02.65-.13.76-.7,1.07-.83.27-.11.79.21,1.28.08.4-.11.72-.79,1.3-.88.22-.03,4.2.15,4.5.21.48.09.71.49,1.08.6,2.64.83,5.34.94,8,1.6,1.62.4,6.83,3.85,8.39,4.98.44.32.4,1.05,1.47.69.92-.31-.03-1.79-.45-2.13s-.88-.17-1.31-.37c-.96-.45-2.93-2.7-3.85-3.11-1.34-.6-3-.99-4.38-1.79-.33-.19-1.19-1.23-1.78-1.4-1.35-.38-1.03.34-2.54-.69l.03.04ZM7.12,108.12c-1.16.73-1.56,1.93-.77,3.12.73,1.09,5.87,2.66,5.32.7-.2-.7-1.56-1.16-2.18-1.68-.44-.37-2-2.2-2.37-2.14ZM33.79,113.18c-1.6.23-.93,2.49.39,2.82,1.51-.67,1.31-3.07-.39-2.82ZM103.16,122.45c.14-.1.95-1.99,1.95-2.73.48-.35,1.02-.3,1.34-.58.51-.46.92-2.2,1.31-2.77.53-.78,2.44-1.34,1.07-2.97-.5.06-.91.28-1.31.57-2.11,1.54-4.41,4.88-6.59,6.61s-3.9,2.5-6.35,3.73c-.58.29-1.48,1.32-2.11,1.49-.72.19-1.49-.08-2.24.16-.69.22-1.48,1.37-1.88,1.47-1.17.3-2.77.21-3.98.35-.35.04-.62.41-.98.46-2.53.33-15.23.44-17.5,0-.58-.11-.83-.72-1.31-.85-.41-.11-.85.22-1.39-.01-.36-.15-.37-.67-.69-.77-.5-.16-1.12.05-1.64-.05-2.77-.51-6.82-3.62-9.67-4.73-1.13-.44-2.95-.17-1.59.86.48.36,1.29.57,1.89.99.41.29,1.01,1.2,1.33,1.33.4.16.92-.27,1.62.03.42.18.69,1.13,1.27,1.39,1.65.76,2.9,1.68,4.55,2.41.36.16,2.21.99,2.33,1.03,1.1.32,4.98.59,6.41.79,3.9.54,8.01.12,12.01-.03,3.56-.13,4.88.57,7.87-1.36,1.38-.89,3.54-.96,5.16-1.69,1.17-.53,3.18-1.28,4.26-1.98.73-.47,1.58-1.82,2.05-2.03.59-.27,2.36-.81,2.82-1.14v.02ZM48.9,134.1c1.83,1.09,1.55,1.19,3.72,1.41,2.49.25,5.13,2.45,7.56,3.03,1.45.34,3.26.51,4.7.82.75.16,1.44.76,2.48.88,3.31.4,11.25.36,14.62.03.64-.06,1.12-.53,1.65-.49.9.07.92.84,2.36.18,2.09-.96,4.2-1.12,6.48-2.16,2.85-1.3,5.17-2.22,8.16-3.12.1-.03,1.78-.95,1.86-1.02,1.3-1.15,1.78-4.1-1.03-2.95-.64.26-.98,1.03-1.49,1.38-.69.47-5.22,3.11-5.82,3.3-1.01.32-2.57.17-3.73.59-1.42.52-4.6,2-6.07,2.09-1.89.12-1.72.03-3.64.44-2.25.47-7.91-.74-10.51-.9-1.61-.1-3.51.19-5.04,0s-3.52-1.6-5.09-1.87c-2.64-.45-4.01-.55-6.53-1.87-1.25-.66-1.03-.46-2.24-.88-1.65-.57-2.17-1.54-3.16-2.12-1.49-.86-3.04-1.73-4.43-2.77-.92-.68-1.51-1.81-2.79-2.02-.67,0-.71.89-.54,1.39,1.04.4,1.64,1.65,2.46,2.22,2.09,1.45,3.84,3.06,6.06,4.39v.02ZM67.97,184.39c2.34,1.09,3.46-.48,5.27-1.27,1.01-.44,4.71-1.13,4.27-2.85-.15-.57-3.54-3.55-4.23-3.73-1.39-.34-1.24.86-1.85,1.41-.44.39-1.04.34-1.27.53-.74.61-1.94,3.7-2.17,4.67-.07.3-.16,1.01-.02,1.23h0ZM92.17,179.62c1.45.02,2.16-2.14,1.08-3.11-1.22.84-1.18,1.72-1.08,3.11ZM60.18,202.45c-1.59.44.94,3.28,1.62,3.08.93-.27-.11-3.51-1.62-3.08ZM87.3,206.82c-.63-.56-1.87.8-2.64,1.17-.6.29-3.88,1.85-4.11,1.88-.99.14-1.89-.23-2.68-.23-2.91,0-4.29,0-7.12-.79-.45-.12-1.26-1.11-1.76-1.36-.92-.46-3.83-.7-3.7.8.06.72.85.51,1.35.83.42.27.91,1.15,1.31,1.33.78.35,3.22.62,4.15.89.42.12.62.73,1.05.87.67.2,5.99.17,6.92.05,1.39-.17,3.82-1.69,5.09-2.35.96-.49,2.47-.48,2.91-1.9.01-.18-.6-1.06-.76-1.2h-.01ZM63.54,229.38c-.45-.3-2.9-.81-3.75-1.17-4.5-1.9-9.28-5.63-13.33-8.51-.4-.28-.88-.32-1.31-.61-.36-.24-.36-1.13-1.31-.81-1.6.53.83,2.28.9,2.44.32.79-.07,1.91.38,2.49.27.34,1.04.41,1.45.71,6.31,4.59,10.91,8.35,18.66,10.14,1.12.26,2.63-.13,3.78.06.67.11.94.63,1.68.72,1.19.15,4.83.15,6.02,0,.75-.1,1.08-.68,1.69-.73,2.42-.22,2.68.17,5.31-.67.85-.27,2.45-.1,3.26-.34,3.19-.95,7.94-3.72,10.74-5.82.96-.72,4.83-4.59,5.51-5.53.61-.86,1.3-2.07-.11-2.52-.74.8-2.01,2.6-2.88,3.13-.46.28-.96.25-1.42.5-.82.45-1.72,2.01-2.81,2.71-2.77,1.8-6.29,3.33-9.33,4.35-2.31.77-3.91.61-6.12,1.08-.91.19-.59.88-2.35.66s-2.22.13-3.89.05c-1.54-.07-2.58-.77-3.61-.94-.89-.15-1.95.12-2.85-.03-.64-.1-1.08-.59-1.71-.69-1.58-.24-1.12.32-2.58-.66h-.02Z"/><path class="cls-1" d="M132.9,309.38c-.44.31-4.07,1.91-4.73,2.12-2.89.92-6.69.57-9.73.58-1.04,0-2.35.33-3.36.28-3.01-.15-5.85-.25-8.87-.27-2.01-.01-2.46.26-4.3-.98-1.39-.94-1.83-3.64-1.43-5.21.59-2.29,3.09-2.71,4.02-4.38.35-.63.59-2.22.63-2.97.09-1.68.04-4.29,0-6.01-.09-3.2-.28-6.36-.24-9.6.05-3.74.4-7.71.25-11.53-.07-1.8-.08-3.58-1.1-5.14-.83-1.27-2.48-1.74-3.33-3.39-.5-.96-.52-2.89-.07-3.88.68-1.52,2.47-2.42,4.06-2.66,2.7-.42,6.77.12,9.68.1,7.46-.04,14.28-1.31,20.5,4.19,1.68,1.49,4.5,6.48,4.77,8.68.05.44-.23.83-.16,1.33.07.43.57.87.64,1.32.03.2-.39,3.54-.46,4-.1.64-1.35,3.65-1.69,4.31-.76,1.45-2.13,2.77-3.08,4.09.23.48.91.61,1.2.98,1.78,2.26,2.58,4.51,3.28,7.28.13.52.69,1.26.7,1.61,0,.57-.3,3.06-.39,3.84-.56,4.6-3.07,8.71-6.78,11.33v-.02ZM115.03,266.08c-.12.12-.76,2.83-.78,3.19-.1,1.33-.04,3.37-.09,4.88-.06,1.77.29,4.03,1.9,5.07,1.16.75,1.43.27,2.4.29,3.04.06,6.05.56,8.85-1.04.18-.1,2.01-1.64,2.08-1.76.3-.46,1.39-3.55,1.36-4.06,0-.22-.28-.49-.33-.79-.18-1.04-.72-2.82-1.32-3.77-.34-.54-1.72-1.55-2.31-1.77-2.31-.87-3.73-.52-5.94-.52-1.88,0-3.89-.68-5.82.27h0ZM115.74,302.69c.3.18,2.77.04,3.43.05,1.8.05,4.45.27,6.23-.02.94-.15,4.03-2.81,4.5-3.66.71-1.26.69-4.31.27-5.65-.05-.15-1.54-2.55-1.65-2.67-1.96-2.29-6.28-1.81-8.9-1.71-.4.02-.78-.23-1.15-.2-2.08.21-4.08.84-4.23,3.22-.05.76.28,1.39.26,1.93-.08,1.95-.1,2.86-.03,4.82.03.77-.52,1.64-.1,2.5.15.31.69.47.97.72.21.19.3.61.4.67h0Z"/><path class="cls-1" d="M47.62,258.73c.39.28.89.48,1.23.81,2.18,2.04,3.31,8.8-.06,10.26-.18.08-2.26.72-2.38.72-.09,0-1.61-.33-1.69-.36-1.96-.84-2.34-3.51-4.57-4.08-3.15-.8-7.91-.34-11.22-.28-.84.01-2.27-.49-3.01.39-.53.62-.46,3.79-.48,4.76-.03,1.89-.1,4.28.37,6.12.07.27.58,1.74.67,1.85.19.23,2.25.96,2.6.9.13-.02,2.18-.87,2.36-.98,2-1.17,3.04-4.17,5.87-3.92,1.28.11,2.81.65,3.48,1.81,1.6,2.79.84,4.16.84,6.89,0,2.08.46,3.96.09,6.22-.14.83-1.27,2.63-1.96,3.08-.89.57-4.21.5-5.17.1-.85-.36-2.04-2.89-3.07-3.47-1.28-.21-3.73-1.02-4.74-.02-.09.09-1.28,2.17-1.3,2.3-.11.59-.14,2.42-.13,3.12,0,.31.37.7.39,1.19.05,1.48-.31,3.08,0,4.78.48,2.68,3.31,2.34,3.96,4.44.06.2.49,2.87.48,3.02s-.54,1.75-.64,1.89c-.4.62-3.19,1.88-3.97,1.99-.67.09-2.13-.21-2.85-.18-2.8.1-8.27.85-10.21-1.6-.91-1.16-1.19-3.52-.59-4.86s2.91-2.57,3.52-3.68c.39-.71.9-2.86.92-3.66.01-.71-.29-1.31-.27-1.91.23-8.05.25-16.07.01-23.99-.05-1.84.4-4.65-.81-6.15-.45-.55-1.57-.79-1.99-1.25-.21-.23-.23-.64-.43-.89-.28-.34-.77-.43-.92-.78-.36-.87-.56-3-.12-3.87.24-.49,1.99-2.67,2.44-2.86,1.2-.04,2.44-.28,3.65-.28,1.4,0,3.01.34,4.31.35,7.09.07,19.66-2.01,25.42,2.06l-.03.02Z"/><path class="cls-1" d="M87.22,275.77c-1.59-1.71-.71-1.94-.86-3.58-.08-.95-.35-2.51-.5-3.59-.42-3.18-2.41-2.48-5.06-2.56-.37.12-.62,1.41-.62,1.8,0,.71.2,1.56.21,2.6.1,9.01-.12,17.98,0,26.88.01.88-.08,3.74.28,4.31.23.34.67.44.93.75,1.43,1.65,2.92,2.33,3.54,4.62.42,1.55-1.38,4.4-2.77,5.06-.12.06-2.49.46-2.62.46-1.46.03-3.28-.45-4.75-.44-.82,0-1.39.47-2.13.48-1.38,0-3.03-.8-4.47-.82-1.46-1.23-2.43-3.04-1.86-4.98.05-.18.82-2.08.88-2.18.16-.25,2.2-1.29,2.79-2.07,1.42-1.88.62-3.66.64-5.65.08-7.05.85-15.42.45-22.55-.12-2.18-.2-2.88-.1-5.08.03-.71-.05-2.73-.51-3.21-.19-.2-2.33-.16-2.72-.07-.85.19-2.09,1.12-2.33,1.99-.14.51-.54,2.3-.58,2.79-.09.94.48,1.72.37,2.51-.17,1.22-1.67,3.73-2.95,4.02-.64.15-3.08.15-3.66-.08-.36-.15-2.17-1.78-2.41-2.15-.96-1.48-.18-2.57-.31-3.81-.28-2.71-.43-6.43-.39-9.12.02-1.25.55-3.42,1.54-4.23,1.88-1.54,3.95-1.45,6.24-1.44,3.5.02,7.86.46,11.29.25.75-.05,1.63-.48,2.16-.46s1,.47,1.91.47c4,0,8.22-.6,12.25-.28,3.02.24,4.56,2.87,4.65,5.69.05,1.6-.4,3.46-.48,5-.11,2.29.51,4.06.07,6.55-.05.28.11.58.05.81-.3,1.21-3.13,2.9-4.33,3.08-1.42.21-2.92-.74-3.86-1.75l.02-.02Z"/><path class="cls-1" d="M131.05,209.5c-.29,1.39-1.2,3.66-1.62,5.1-1.15,3.9-1.14,7.5-3.64,11-.22.31-.92.45-1.11.82-.34.68.23,1.36.03,1.68-.2.31-.83.32-1.04.53-.23.24-.36,1.13-.67,1.61-1.04,1.6-3.4,3.18-4.79,4.33-.57.47-2.64,2.6-3,2.76-.56.24-1.24-.02-1.68.24-.24.14-.33.67-.58.86-.32.24-.77.17-1.08.36-.43.27-1.3,1.58-1.72,1.88-.65.48-1.66.48-2.37.75-.34.13-.6.7-1.15.79-.46.08-.93-.25-1.26-.1-.47.23-1.22,1.13-2.11,1.28-.44.07-.78-.28-1.25-.08s-.74,1.19-1.13,1.31c-.42.13-.85-.27-1.27-.11-.47.19-.96,1.32-1.13,1.35-.35.06-.75-.24-1.12-.19-1.28.18-2.74,1.04-3.69,1.32-1.67.48-3.28,1.02-5.12,1.6-.73.23-.64.97-1.62.21-.18-.14-.33-.06-.32-.44.06-2.2,4.53-2.15,5.97-2.94.79-.44.72-1.44,2.3-.8l.94-1.26,1.84.07c.01-1.89,1.19-1.11,1.94-1.54.33-.19.8-1.37,1.22-1.66.4-.28,1-.24,1.41-.51.45-.29.6-1.02.97-1.19.39-.19.96-.02,1.17-.15.13-.08.12-.61.34-.86.41-.45,1.27-1.05,1.74-1.5.82-.79,2.83-2.86,3.72-3.25.41-.18.97-.04,1.16-.16.44-.27,2.34-3.79,2.81-4.51.37-.56,2.84-2.21,3.1-2.66.49-.86.97-2.45,1.64-3.28s2.45-1.87,2.98-2.54c.43-.54.17-1.3.35-1.57.09-.15.74-.14,1.03-.53.27-.36.2-.94.37-1.25,3.26-5.57,4.51-11.77,5.69-18.13.93-5.02.29-10.45.3-15.52,0-1.78-.28-5.18.02-6.72.1-.51.5-.76.84-1.08l.59.36v34.32h0Z"/><path class="cls-1" d="M69.85,18.34c.15-.89-.4-1.38-.5-2.26-.46-4.18.39-9.19,0-13.47.85-2.51,3.79-2.86,6.12-2.49.68.11,1.11.61,1.93.71,1.67.21,8.72-.44,9.49.35.52.53.5,5.25.48,6.26-.04,3.05-.01,7.38-.89,10.11-.06.19.21.58.06.81-.24.37-3.09.3-3.81.52-.36.12-.5.56-1.01.67-1.17.23-5.37.12-6.73.02-.72-.05-1.31-.48-1.67-.48-.43,0-.84.5-1.17.44-.47-.09-.9-1.79-2.31-1.17v-.02ZM85.42,2.29c-.27-.2-1.24.26-1.75.21-.4-.04-.72-.39-1.04-.43-2.58-.34-4.86-.15-7.38-.3-.8-.05-1.52-.53-2.34-.43-.54.07-1.18.56-1.85.45.27,1.13-.96,2.2-.91,3.19,0,.16.94,2.89,1.02,3.03.64,1.11,2.95,1.1,4.08.97,1.7-.19,3.51-.61,5.28-.72s3.79.28,5.58-.3c.39-.33.41-3.3.29-3.9-.02-.1-.9-1.72-.98-1.78h0Z"/><path class="cls-1" d="M32.39,53.84c-1.45.19-2.42-1.03-1.9-2.38,1.08.41,2.6,1.03,1.9,2.38Z"/></g></g></svg>